<?xml version="1.0" encoding="utf-8"?>
<!-- Uploaded to: SVG Repo, www.svgrepo.com, Generator: SVG Repo Mixer Tools -->
<svg width="200px" height="200px" viewBox="0 0 1024 1024" class="icon"  version="1.1" xmlns="http://www.w3.org/2000/svg"><path d="M382 247.3c74.1 0 139.6 8.6 176.7 20v14.3c0 28.6-74.1 51.5-168.1 51.5-91.2 0-88.1-22.9-88.1-51.5v-17.2c36.9-11.4 16.8-17.1 79.5-17.1z" fill="#CCCCCC" /><path d="M552.9 313.1v18c0 120.1-88.3 191.6-88.3 191.6v39.2c0 5.7 14.3 14.3 31.3 22.9 3.5 0.6 6.9 1.2 10.2 1.9-27.8 42.8-44 93.9-44 148.7 0 22.5 2.7 44.3 7.8 65.2-34.9 2-62.8 2.4-73.8 2.4h-1.7c-3.3 0-6.5-0.1-9.8-0.2 0 0.1 0.1 0.1 0.1 0.2-42.7 0-222-5.7-230.6-71.5V730.7c0-17.2 31.3-114.4 210.9-145.8 14.2-5.7 21.3-14.3 21.3-22.9v-39.2S308 451.3 308 331.2v-18c22.8 20 5.5 37.2 82.4 37.2S533 336 552.9 313.1zM604.2 164.4c-2.8 8.6-5.7 22.9-11.4 34.3-11.4 22.9-31.4 54.3-31.4 54.3v11.4c-39.9-11.4-102.6-20-176.7-20-65.5 0-42.5 5.7-82.4 14.3v-2.9s-20-31.5-31.3-54.3c-5.7-14.3-11.4-25.7-14.2-37.2 0-8.6 5.7-14.3 14.2-20 28.5-11.4 84-40 109.7-51.5 5.7-2.9 17.1-5.7 25.6-5.7h38.3c8.5 0 20 2.9 25.6 5.7 25.7 11.4 91.2 40 119.7 51.5 8.6 5.8 14.3 11.5 14.3 20.1z" fill="#CCCCCC" /><path d="M496 562.8c-2.9-1.5-5.5-2.7-7.6-3.6v-24.7c9-8.4 25.7-25.4 42.3-50.2 31.7-47.2 48.5-100.8 48.5-154.8 0-3.3-0.2-8-0.4-13-0.2-4.4-0.4-9-0.4-11.6 0-1.3-0.2-2.6-0.4-3.9 3.8-5.5 5.8-10.9 6.6-15.9l3.4 1v-30.7c6.1-9.9 20.8-33.9 30.3-52.9 4.9-9.8 7.8-20.5 10.2-29.1 0.9-3.2 1.7-6.3 2.5-8.5l0.9-2.8v-2.9c0-20.5-16.5-31.5-22.7-35.7l-1.6-1.1-1.8-0.7c-28.5-11.4-94.3-40.1-122-52.5-9-4.4-23.3-7.6-34.1-7.6H338.5c-10.8 0-25 3.2-34.1 7.6-27.7 12.3-93.5 41-122 52.5l-1.8 0.7-1.6 1.1c-6.2 4.2-22.7 15.2-22.7 35.7v2.2l0.5 2.2c2.4 9.6 6.3 18.8 10.4 28.5 1.6 3.9 3.3 7.9 5 12.1l0.3 0.7 0.3 0.7c9.5 19 24.1 43 30.3 52.9v21.2c0 5 1.1 11.3 5 18.1 0 3.6 0.2 9.5 0.4 15.8s0.4 13.4 0.4 16c0 54.1 16.8 107.6 48.5 154.8 16.6 24.7 33.3 41.8 42.3 50.2v28.9c-2.3 1.8-7.7 5.3-19.1 10-43.4 7.8-81.9 19.8-114.6 35.8-27.9 13.7-51.7 30.3-70.7 49.4-35 35.1-44.3 69.1-44.3 82.1v1.2l0.2 1.2c5 38.8 56.5 63.5 162 77.8 84.3 11.4 171.5 11.5 175.1 11.5h0.4c8-0.2 26.9-0.7 43-1.2 9.1-0.3 7.8-0.6 13.2-0.8 3-0.1 5.5-0.2 7.3-0.3 4.1-0.2 10.4-0.6 15.5-6.6 3.4-4 4.9-9.2 4.1-14.4-1.4-10-10.7-16.9-20.6-15.4h8.7c-4.4 0.3-16.2 1-33.7 1.5L440 692.6c0-16.4-21.6-29.9-36.9-29.9h-7.6c-15.3 0-37.8 13.5-37.8 29.9L369.9 796c-24.6-0.3-84.7-2-151.9-11.1-40.2-5.4-72.2-12.5-95-21.1-28.2-10.5-34.2-20-35.4-24.1 1-6.9 8.6-30.5 34.6-56.3C147.5 658.3 197 625 289 608.9l1.9-0.3 1.8-0.7c20.3-8.2 43.6-20.1 43.6-40.4v-49.8l-6.8-5.5c-0.8-0.7-84-69.3-84-182.7v-3c6.6 2.9 13.9 5.5 21.9 8 34.4 10.5 79.5 16.2 126.8 16.2 48.4 0 93.8-5.8 127.9-16.2 7.8-2.4 14.6-4.9 20.7-7.6v2.6c0 47.1-14 92-41.6 133.5-20.9 31.5-42.2 49-42.4 49.2l-6.8 5.5v49.8c0 14.8 8.4 19.5 16.3 22.8 2.5 1 5.9 2.4 11.3 5.2 2.6 1.3 5.4 1.9 8.2 1.9 6.7 0 13.1-3.7 16.3-10 4.5-9.1 0.9-20.1-8.1-24.6zM388.2 223.1c-11 0-21.9 0.2-32.6 0.5l38.5-19.3 39.7 19.9c-14.9-0.7-30.2-1.1-45.6-1.1z m79.7-121.2l0.8 0.4c27.1 12.1 91.8 40.3 121.7 52.4 2.5 1.8 3.8 3 4.5 3.7-0.5 1.7-1 3.4-1.5 5.2-2.1 7.5-4.4 16-7.7 22.6-10 20.1-27 47.5-30.6 53.1-33.9-7.8-75.7-13-120.5-15.1l-6.7-46.9 26.1-32.8-38.9-6.5L395 98h54.7c6.2 0 15.1 2.4 18.2 3.9z m-267.1 75.8c-3-7.1-5.7-13.4-7.5-19.3 0.6-0.7 2-2 4.6-3.8 29.9-12.1 94.6-40.3 121.7-52.4l0.8-0.4c3.1-1.6 12-3.9 18.2-3.9h54.7l-20 40.1-38.9 6.5 26.1 32.8-6.6 46.3c-45.2 1.4-87.2 5.4-121.9 11.7-6.6-10.7-18.3-30.2-26-45.6-1.9-4.2-3.6-8.1-5.2-12z m306.1 123.2c-30.2 8.6-70.3 13.3-112.8 13.3-41.1 0-80.6-4.7-111.1-13.2-32.3-9-42.3-18.8-43.4-21.8v-3.5c35.2-8.5 87.2-13.3 145.7-13.3 62.2 0 123 6.1 163.3 16.2v0.7c-0.8 2.5-9.7 12.5-41.7 21.6zM735.9 508.2c-124.3 0-225 100.7-225 225s100.7 225 225 225 225-100.7 225-225-100.8-225-225-225zM876 646.1L753.7 878.4c-3.3 6.3-9.7 10.1-16.7 10.1h-0.6c-7.2 0.2-13.8-3.7-17.2-10.1L596.9 646.1c-4.9-9.2-1.3-20.7 7.9-25.7 4.4-2.4 9.6-2.8 14.5-1.3s8.9 4.8 11.2 9.2l105.9 201.3 105.9-201.2c2.4-4.5 6.4-7.8 11.2-9.3 4.9-1.5 10-1 14.5 1.4 9.2 4.9 12.8 16.4 8 25.6z" fill="#666666" /><path d="M398.5 582c19.4 0 35.1 15.7 35.1 35.1s-15.7 35.1-35.1 35.1-25.1-15.7-25.1-35.1 5.7-35.1 25.1-35.1z" fill="#666666" /></svg>